<?xml version="1.0" encoding="utf-8" standalone="no"?>
<!DOCTYPE svg PUBLIC "-//W3C//DTD SVG 1.1//EN"
  "http://www.w3.org/Graphics/SVG/1.1/DTD/svg11.dtd">
<svg xmlns:xlink="http://www.w3.org/1999/xlink" width="712.528565pt" height="352.637812pt" viewBox="0 0 712.528565 352.637812" xmlns="http://www.w3.org/2000/svg" version="1.1">
 <metadata>
  <rdf:RDF xmlns:dc="http://purl.org/dc/elements/1.1/" xmlns:cc="http://creativecommons.org/ns#" xmlns:rdf="http://www.w3.org/1999/02/22-rdf-syntax-ns#">
   <cc:Work>
    <dc:type rdf:resource="http://purl.org/dc/dcmitype/StillImage"/>
    <dc:date>2025-03-26T14:13:42.397934</dc:date>
    <dc:format>image/svg+xml</dc:format>
    <dc:creator>
     <cc:Agent>
      <dc:title>Matplotlib v3.10.1, https://matplotlib.org/</dc:title>
     </cc:Agent>
    </dc:creator>
   </cc:Work>
  </rdf:RDF>
 </metadata>
 <defs>
  <style type="text/css">*{stroke-linejoin: round; stroke-linecap: butt}</style>
 </defs>
 <g id="figure_1">
  <g id="patch_1">
   <path d="M 0 352.637812 
L 712.528565 352.637812 
L 712.528565 0 
L 0 0 
z
" style="fill: #ffffff"/>
  </g>
  <g id="axes_1">
   <g id="patch_2">
    <path d="M 47.41375 341.937812 
L 705.328565 341.937812 
L 705.328565 23.837812 
L 47.41375 23.837812 
z
" style="fill: #ffffff"/>
   </g>
   <g id="FillBetweenPolyCollection_1">
    <defs>
     <path id="mddcd381bec" d="M 377.235584 -25.159091 
L 375.506731 -25.159091 
L 375.099479 -28.080119 
L 374.560578 -31.001148 
L 373.874267 -33.922176 
L 373.032628 -36.843205 
L 372.037856 -39.764233 
L 370.902842 -42.685262 
L 369.649416 -45.60629 
L 368.30404 -48.527319 
L 366.891375 -51.448347 
L 365.426797 -54.369376 
L 363.90943 -57.290404 
L 362.317422 -60.211433 
L 360.606856 -63.132461 
L 358.714938 -66.053489 
L 356.567044 -68.974518 
L 354.08602 -71.895546 
L 351.201256 -74.816575 
L 347.854643 -77.737603 
L 344.000934 -80.658632 
L 339.601247 -83.57966 
L 334.610316 -86.500689 
L 328.960245 -89.421717 
L 322.545366 -92.342746 
L 315.213803 -95.263774 
L 306.770979 -98.184803 
L 296.998476 -101.105831 
L 285.688512 -104.02686 
L 272.690458 -106.947888 
L 257.962116 -109.868916 
L 241.615963 -112.789945 
L 223.94999 -115.710973 
L 205.454507 -118.632002 
L 186.790238 -121.55303 
L 168.738327 -124.474059 
L 152.128372 -127.395087 
L 137.755076 -130.316116 
L 126.296494 -133.237144 
L 118.246726 -136.158173 
L 113.873335 -139.079201 
L 113.205232 -142.00023 
L 116.051301 -144.921258 
L 122.044535 -147.842287 
L 130.702089 -150.763315 
L 141.489341 -153.684343 
L 153.876265 -156.605372 
L 167.377269 -159.5264 
L 181.570416 -162.447429 
L 196.097286 -165.368457 
L 210.64936 -168.289486 
L 224.949253 -171.210514 
L 238.735064 -174.131543 
L 251.753695 -177.052571 
L 263.76528 -179.9736 
L 274.557152 -182.894628 
L 283.963089 -185.815657 
L 291.882476 -188.736685 
L 298.294522 -191.657713 
L 303.264191 -194.578742 
L 306.938537 -197.49977 
L 309.534001 -200.420799 
L 311.316708 -203.341827 
L 312.578613 -206.262856 
L 313.612682 -209.183884 
L 314.689961 -212.104913 
L 316.040804 -215.025941 
L 317.841512 -217.94697 
L 320.206744 -220.867998 
L 323.187213 -223.789027 
L 326.771812 -226.710055 
L 330.893291 -229.631084 
L 335.436852 -232.552112 
L 340.2513 -235.47314 
L 345.162421 -238.394169 
L 349.987975 -241.315197 
L 354.553206 -244.236226 
L 358.705307 -247.157254 
L 362.325204 -250.078283 
L 365.335291 -252.999311 
L 367.702515 -255.92034 
L 369.437022 -258.841368 
L 370.587238 -261.762397 
L 371.23256 -264.683425 
L 371.474706 -267.604454 
L 371.428443 -270.525482 
L 371.212074 -273.446511 
L 370.93799 -276.367539 
L 370.703756 -279.288567 
L 370.584507 -282.209596 
L 370.627677 -285.130624 
L 370.85103 -288.051653 
L 371.244492 -290.972681 
L 371.775572 -293.89371 
L 372.397384 -296.814738 
L 373.057702 -299.735767 
L 373.707372 -302.656795 
L 374.306646 -305.577824 
L 374.828699 -308.498852 
L 375.260254 -311.419881 
L 375.599899 -314.340909 
L 377.142416 -314.340909 
L 377.142416 -314.340909 
L 377.482062 -311.419881 
L 377.913617 -308.498852 
L 378.435669 -305.577824 
L 379.034943 -302.656795 
L 379.684613 -299.735767 
L 380.344932 -296.814738 
L 380.966743 -293.89371 
L 381.497823 -290.972681 
L 381.891285 -288.051653 
L 382.114639 -285.130624 
L 382.157808 -282.209596 
L 382.038559 -279.288567 
L 381.804326 -276.367539 
L 381.530242 -273.446511 
L 381.313872 -270.525482 
L 381.267609 -267.604454 
L 381.509756 -264.683425 
L 382.155078 -261.762397 
L 383.305294 -258.841368 
L 385.0398 -255.92034 
L 387.407025 -252.999311 
L 390.417111 -250.078283 
L 394.037008 -247.157254 
L 398.18911 -244.236226 
L 402.75434 -241.315197 
L 407.579895 -238.394169 
L 412.491015 -235.47314 
L 417.305463 -232.552112 
L 421.849024 -229.631084 
L 425.970504 -226.710055 
L 429.555103 -223.789027 
L 432.535571 -220.867998 
L 434.900803 -217.94697 
L 436.701512 -215.025941 
L 438.052354 -212.104913 
L 439.129633 -209.183884 
L 440.163702 -206.262856 
L 441.425608 -203.341827 
L 443.208314 -200.420799 
L 445.803778 -197.49977 
L 449.478124 -194.578742 
L 454.447793 -191.657713 
L 460.859839 -188.736685 
L 468.779227 -185.815657 
L 478.185163 -182.894628 
L 488.977035 -179.9736 
L 500.98862 -177.052571 
L 514.007251 -174.131543 
L 527.793063 -171.210514 
L 542.092955 -168.289486 
L 556.645029 -165.368457 
L 571.1719 -162.447429 
L 585.365046 -159.5264 
L 598.86605 -156.605372 
L 611.252974 -153.684343 
L 622.040227 -150.763315 
L 630.697781 -147.842287 
L 636.691014 -144.921258 
L 639.537084 -142.00023 
L 638.868981 -139.079201 
L 634.495589 -136.158173 
L 626.445821 -133.237144 
L 614.987239 -130.316116 
L 600.613943 -127.395087 
L 584.003988 -124.474059 
L 565.952077 -121.55303 
L 547.287808 -118.632002 
L 528.792325 -115.710973 
L 511.126352 -112.789945 
L 494.7802 -109.868916 
L 480.051857 -106.947888 
L 467.053803 -104.02686 
L 455.743839 -101.105831 
L 445.971336 -98.184803 
L 437.528512 -95.263774 
L 430.19695 -92.342746 
L 423.782071 -89.421717 
L 418.131999 -86.500689 
L 413.141068 -83.57966 
L 408.741381 -80.658632 
L 404.887672 -77.737603 
L 401.541059 -74.816575 
L 398.656296 -71.895546 
L 396.175272 -68.974518 
L 394.027377 -66.053489 
L 392.135459 -63.132461 
L 390.424893 -60.211433 
L 388.832885 -57.290404 
L 387.315518 -54.369376 
L 385.85094 -51.448347 
L 384.438275 -48.527319 
L 383.0929 -45.60629 
L 381.839473 -42.685262 
L 380.704459 -39.764233 
L 379.709687 -36.843205 
L 378.868049 -33.922176 
L 378.181737 -31.001148 
L 377.642836 -28.080119 
L 377.235584 -25.159091 
z
" style="stroke: #797979; stroke-width: 1.25"/>
    </defs>
    <g clip-path="url(#pb8eab2a15a)">
     <use xlink:href="#mddcd381bec" x="0" y="352.637812" style="fill: #b4d4df; stroke: #797979; stroke-width: 1.25"/>
    </g>
   </g>
   <g id="matplotlib.axis_1">
    <g id="xtick_1">
     <g id="line2d_1">
      <defs>
       <path id="m6dc310c480" d="M 0 0 
L 0 3.5 
" style="stroke: #000000; stroke-width: 0.8"/>
      </defs>
      <g>
       <use xlink:href="#m6dc310c480" x="376.371158" y="341.937812" style="stroke: #000000; stroke-width: 0.8"/>
      </g>
     </g>
    </g>
   </g>
   <g id="matplotlib.axis_2">
    <g id="ytick_1">
     <g id="line2d_2">
      <defs>
       <path id="me411780d1c" d="M 0 0 
L -3.5 0 
" style="stroke: #000000; stroke-width: 0.8"/>
      </defs>
      <g>
       <use xlink:href="#me411780d1c" x="47.41375" y="296.991467" style="stroke: #000000; stroke-width: 0.8"/>
      </g>
     </g>
     <g id="text_1">
      <!-- $\mathdefault{10^{1}}$ -->
      <g transform="translate(22.81375 300.790685) scale(0.1 -0.1)">
       <defs>
        <path id="DejaVuSans-31" d="M 794 531 
L 1825 531 
L 1825 4091 
L 703 3866 
L 703 4441 
L 1819 4666 
L 2450 4666 
L 2450 531 
L 3481 531 
L 3481 0 
L 794 0 
L 794 531 
z
" transform="scale(0.015625)"/>
        <path id="DejaVuSans-30" d="M 2034 4250 
Q 1547 4250 1301 3770 
Q 1056 3291 1056 2328 
Q 1056 1369 1301 889 
Q 1547 409 2034 409 
Q 2525 409 2770 889 
Q 3016 1369 3016 2328 
Q 3016 3291 2770 3770 
Q 2525 4250 2034 4250 
z
M 2034 4750 
Q 2819 4750 3233 4129 
Q 3647 3509 3647 2328 
Q 3647 1150 3233 529 
Q 2819 -91 2034 -91 
Q 1250 -91 836 529 
Q 422 1150 422 2328 
Q 422 3509 836 4129 
Q 1250 4750 2034 4750 
z
" transform="scale(0.015625)"/>
       </defs>
       <use xlink:href="#DejaVuSans-31" transform="translate(0 0.684375)"/>
       <use xlink:href="#DejaVuSans-30" transform="translate(63.623047 0.684375)"/>
       <use xlink:href="#DejaVuSans-31" transform="translate(128.203125 38.965625) scale(0.7)"/>
      </g>
     </g>
    </g>
    <g id="ytick_2">
     <g id="line2d_3">
      <g>
       <use xlink:href="#me411780d1c" x="47.41375" y="244.119386" style="stroke: #000000; stroke-width: 0.8"/>
      </g>
     </g>
     <g id="text_2">
      <!-- $\mathdefault{10^{2}}$ -->
      <g transform="translate(22.81375 247.918605) scale(0.1 -0.1)">
       <defs>
        <path id="DejaVuSans-32" d="M 1228 531 
L 3431 531 
L 3431 0 
L 469 0 
L 469 531 
Q 828 903 1448 1529 
Q 2069 2156 2228 2338 
Q 2531 2678 2651 2914 
Q 2772 3150 2772 3378 
Q 2772 3750 2511 3984 
Q 2250 4219 1831 4219 
Q 1534 4219 1204 4116 
Q 875 4013 500 3803 
L 500 4441 
Q 881 4594 1212 4672 
Q 1544 4750 1819 4750 
Q 2544 4750 2975 4387 
Q 3406 4025 3406 3419 
Q 3406 3131 3298 2873 
Q 3191 2616 2906 2266 
Q 2828 2175 2409 1742 
Q 1991 1309 1228 531 
z
" transform="scale(0.015625)"/>
       </defs>
       <use xlink:href="#DejaVuSans-31" transform="translate(0 0.765625)"/>
       <use xlink:href="#DejaVuSans-30" transform="translate(63.623047 0.765625)"/>
       <use xlink:href="#DejaVuSans-32" transform="translate(128.203125 39.046875) scale(0.7)"/>
      </g>
     </g>
    </g>
    <g id="ytick_3">
     <g id="line2d_4">
      <g>
       <use xlink:href="#me411780d1c" x="47.41375" y="191.247305" style="stroke: #000000; stroke-width: 0.8"/>
      </g>
     </g>
     <g id="text_3">
      <!-- $\mathdefault{10^{3}}$ -->
      <g transform="translate(22.81375 195.046524) scale(0.1 -0.1)">
       <defs>
        <path id="DejaVuSans-33" d="M 2597 2516 
Q 3050 2419 3304 2112 
Q 3559 1806 3559 1356 
Q 3559 666 3084 287 
Q 2609 -91 1734 -91 
Q 1441 -91 1130 -33 
Q 819 25 488 141 
L 488 750 
Q 750 597 1062 519 
Q 1375 441 1716 441 
Q 2309 441 2620 675 
Q 2931 909 2931 1356 
Q 2931 1769 2642 2001 
Q 2353 2234 1838 2234 
L 1294 2234 
L 1294 2753 
L 1863 2753 
Q 2328 2753 2575 2939 
Q 2822 3125 2822 3475 
Q 2822 3834 2567 4026 
Q 2313 4219 1838 4219 
Q 1578 4219 1281 4162 
Q 984 4106 628 3988 
L 628 4550 
Q 988 4650 1302 4700 
Q 1616 4750 1894 4750 
Q 2613 4750 3031 4423 
Q 3450 4097 3450 3541 
Q 3450 3153 3228 2886 
Q 3006 2619 2597 2516 
z
" transform="scale(0.015625)"/>
       </defs>
       <use xlink:href="#DejaVuSans-31" transform="translate(0 0.765625)"/>
       <use xlink:href="#DejaVuSans-30" transform="translate(63.623047 0.765625)"/>
       <use xlink:href="#DejaVuSans-33" transform="translate(128.203125 39.046875) scale(0.7)"/>
      </g>
     </g>
    </g>
    <g id="ytick_4">
     <g id="line2d_5">
      <g>
       <use xlink:href="#me411780d1c" x="47.41375" y="138.375224" style="stroke: #000000; stroke-width: 0.8"/>
      </g>
     </g>
     <g id="text_4">
      <!-- $\mathdefault{10^{4}}$ -->
      <g transform="translate(22.81375 142.174443) scale(0.1 -0.1)">
       <defs>
        <path id="DejaVuSans-34" d="M 2419 4116 
L 825 1625 
L 2419 1625 
L 2419 4116 
z
M 2253 4666 
L 3047 4666 
L 3047 1625 
L 3713 1625 
L 3713 1100 
L 3047 1100 
L 3047 0 
L 2419 0 
L 2419 1100 
L 313 1100 
L 313 1709 
L 2253 4666 
z
" transform="scale(0.015625)"/>
       </defs>
       <use xlink:href="#DejaVuSans-31" transform="translate(0 0.684375)"/>
       <use xlink:href="#DejaVuSans-30" transform="translate(63.623047 0.684375)"/>
       <use xlink:href="#DejaVuSans-34" transform="translate(128.203125 38.965625) scale(0.7)"/>
      </g>
     </g>
    </g>
    <g id="ytick_5">
     <g id="line2d_6">
      <g>
       <use xlink:href="#me411780d1c" x="47.41375" y="85.503143" style="stroke: #000000; stroke-width: 0.8"/>
      </g>
     </g>
     <g id="text_5">
      <!-- $\mathdefault{10^{5}}$ -->
      <g transform="translate(22.81375 89.302362) scale(0.1 -0.1)">
       <defs>
        <path id="DejaVuSans-35" d="M 691 4666 
L 3169 4666 
L 3169 4134 
L 1269 4134 
L 1269 2991 
Q 1406 3038 1543 3061 
Q 1681 3084 1819 3084 
Q 2600 3084 3056 2656 
Q 3513 2228 3513 1497 
Q 3513 744 3044 326 
Q 2575 -91 1722 -91 
Q 1428 -91 1123 -41 
Q 819 9 494 109 
L 494 744 
Q 775 591 1075 516 
Q 1375 441 1709 441 
Q 2250 441 2565 725 
Q 2881 1009 2881 1497 
Q 2881 1984 2565 2268 
Q 2250 2553 1709 2553 
Q 1456 2553 1204 2497 
Q 953 2441 691 2322 
L 691 4666 
z
" transform="scale(0.015625)"/>
       </defs>
       <use xlink:href="#DejaVuSans-31" transform="translate(0 0.684375)"/>
       <use xlink:href="#DejaVuSans-30" transform="translate(63.623047 0.684375)"/>
       <use xlink:href="#DejaVuSans-35" transform="translate(128.203125 38.965625) scale(0.7)"/>
      </g>
     </g>
    </g>
    <g id="ytick_6">
     <g id="line2d_7">
      <g>
       <use xlink:href="#me411780d1c" x="47.41375" y="32.631062" style="stroke: #000000; stroke-width: 0.8"/>
      </g>
     </g>
     <g id="text_6">
      <!-- $\mathdefault{10^{6}}$ -->
      <g transform="translate(22.81375 36.430281) scale(0.1 -0.1)">
       <defs>
        <path id="DejaVuSans-36" d="M 2113 2584 
Q 1688 2584 1439 2293 
Q 1191 2003 1191 1497 
Q 1191 994 1439 701 
Q 1688 409 2113 409 
Q 2538 409 2786 701 
Q 3034 994 3034 1497 
Q 3034 2003 2786 2293 
Q 2538 2584 2113 2584 
z
M 3366 4563 
L 3366 3988 
Q 3128 4100 2886 4159 
Q 2644 4219 2406 4219 
Q 1781 4219 1451 3797 
Q 1122 3375 1075 2522 
Q 1259 2794 1537 2939 
Q 1816 3084 2150 3084 
Q 2853 3084 3261 2657 
Q 3669 2231 3669 1497 
Q 3669 778 3244 343 
Q 2819 -91 2113 -91 
Q 1303 -91 875 529 
Q 447 1150 447 2328 
Q 447 3434 972 4092 
Q 1497 4750 2381 4750 
Q 2619 4750 2861 4703 
Q 3103 4656 3366 4563 
z
" transform="scale(0.015625)"/>
       </defs>
       <use xlink:href="#DejaVuSans-31" transform="translate(0 0.765625)"/>
       <use xlink:href="#DejaVuSans-30" transform="translate(63.623047 0.765625)"/>
       <use xlink:href="#DejaVuSans-36" transform="translate(128.203125 39.046875) scale(0.7)"/>
      </g>
     </g>
    </g>
    <g id="ytick_7">
     <g id="line2d_8">
      <defs>
       <path id="m290dc362cc" d="M 0 0 
L -2 0 
" style="stroke: #000000; stroke-width: 0.6"/>
      </defs>
      <g>
       <use xlink:href="#m290dc362cc" x="47.41375" y="333.947465" style="stroke: #000000; stroke-width: 0.6"/>
      </g>
     </g>
    </g>
    <g id="ytick_8">
     <g id="line2d_9">
      <g>
       <use xlink:href="#m290dc362cc" x="47.41375" y="324.637154" style="stroke: #000000; stroke-width: 0.6"/>
      </g>
     </g>
    </g>
    <g id="ytick_9">
     <g id="line2d_10">
      <g>
       <use xlink:href="#m290dc362cc" x="47.41375" y="318.031383" style="stroke: #000000; stroke-width: 0.6"/>
      </g>
     </g>
    </g>
    <g id="ytick_10">
     <g id="line2d_11">
      <g>
       <use xlink:href="#m290dc362cc" x="47.41375" y="312.907549" style="stroke: #000000; stroke-width: 0.6"/>
      </g>
     </g>
    </g>
    <g id="ytick_11">
     <g id="line2d_12">
      <g>
       <use xlink:href="#m290dc362cc" x="47.41375" y="308.721072" style="stroke: #000000; stroke-width: 0.6"/>
      </g>
     </g>
    </g>
    <g id="ytick_12">
     <g id="line2d_13">
      <g>
       <use xlink:href="#m290dc362cc" x="47.41375" y="305.181456" style="stroke: #000000; stroke-width: 0.6"/>
      </g>
     </g>
    </g>
    <g id="ytick_13">
     <g id="line2d_14">
      <g>
       <use xlink:href="#m290dc362cc" x="47.41375" y="302.115301" style="stroke: #000000; stroke-width: 0.6"/>
      </g>
     </g>
    </g>
    <g id="ytick_14">
     <g id="line2d_15">
      <g>
       <use xlink:href="#m290dc362cc" x="47.41375" y="299.41076" style="stroke: #000000; stroke-width: 0.6"/>
      </g>
     </g>
    </g>
    <g id="ytick_15">
     <g id="line2d_16">
      <g>
       <use xlink:href="#m290dc362cc" x="47.41375" y="281.075384" style="stroke: #000000; stroke-width: 0.6"/>
      </g>
     </g>
    </g>
    <g id="ytick_16">
     <g id="line2d_17">
      <g>
       <use xlink:href="#m290dc362cc" x="47.41375" y="271.765073" style="stroke: #000000; stroke-width: 0.6"/>
      </g>
     </g>
    </g>
    <g id="ytick_17">
     <g id="line2d_18">
      <g>
       <use xlink:href="#m290dc362cc" x="47.41375" y="265.159302" style="stroke: #000000; stroke-width: 0.6"/>
      </g>
     </g>
    </g>
    <g id="ytick_18">
     <g id="line2d_19">
      <g>
       <use xlink:href="#m290dc362cc" x="47.41375" y="260.035468" style="stroke: #000000; stroke-width: 0.6"/>
      </g>
     </g>
    </g>
    <g id="ytick_19">
     <g id="line2d_20">
      <g>
       <use xlink:href="#m290dc362cc" x="47.41375" y="255.848991" style="stroke: #000000; stroke-width: 0.6"/>
      </g>
     </g>
    </g>
    <g id="ytick_20">
     <g id="line2d_21">
      <g>
       <use xlink:href="#m290dc362cc" x="47.41375" y="252.309375" style="stroke: #000000; stroke-width: 0.6"/>
      </g>
     </g>
    </g>
    <g id="ytick_21">
     <g id="line2d_22">
      <g>
       <use xlink:href="#m290dc362cc" x="47.41375" y="249.24322" style="stroke: #000000; stroke-width: 0.6"/>
      </g>
     </g>
    </g>
    <g id="ytick_22">
     <g id="line2d_23">
      <g>
       <use xlink:href="#m290dc362cc" x="47.41375" y="246.53868" style="stroke: #000000; stroke-width: 0.6"/>
      </g>
     </g>
    </g>
    <g id="ytick_23">
     <g id="line2d_24">
      <g>
       <use xlink:href="#m290dc362cc" x="47.41375" y="228.203303" style="stroke: #000000; stroke-width: 0.6"/>
      </g>
     </g>
    </g>
    <g id="ytick_24">
     <g id="line2d_25">
      <g>
       <use xlink:href="#m290dc362cc" x="47.41375" y="218.892992" style="stroke: #000000; stroke-width: 0.6"/>
      </g>
     </g>
    </g>
    <g id="ytick_25">
     <g id="line2d_26">
      <g>
       <use xlink:href="#m290dc362cc" x="47.41375" y="212.287221" style="stroke: #000000; stroke-width: 0.6"/>
      </g>
     </g>
    </g>
    <g id="ytick_26">
     <g id="line2d_27">
      <g>
       <use xlink:href="#m290dc362cc" x="47.41375" y="207.163387" style="stroke: #000000; stroke-width: 0.6"/>
      </g>
     </g>
    </g>
    <g id="ytick_27">
     <g id="line2d_28">
      <g>
       <use xlink:href="#m290dc362cc" x="47.41375" y="202.97691" style="stroke: #000000; stroke-width: 0.6"/>
      </g>
     </g>
    </g>
    <g id="ytick_28">
     <g id="line2d_29">
      <g>
       <use xlink:href="#m290dc362cc" x="47.41375" y="199.437294" style="stroke: #000000; stroke-width: 0.6"/>
      </g>
     </g>
    </g>
    <g id="ytick_29">
     <g id="line2d_30">
      <g>
       <use xlink:href="#m290dc362cc" x="47.41375" y="196.371139" style="stroke: #000000; stroke-width: 0.6"/>
      </g>
     </g>
    </g>
    <g id="ytick_30">
     <g id="line2d_31">
      <g>
       <use xlink:href="#m290dc362cc" x="47.41375" y="193.666599" style="stroke: #000000; stroke-width: 0.6"/>
      </g>
     </g>
    </g>
    <g id="ytick_31">
     <g id="line2d_32">
      <g>
       <use xlink:href="#m290dc362cc" x="47.41375" y="175.331222" style="stroke: #000000; stroke-width: 0.6"/>
      </g>
     </g>
    </g>
    <g id="ytick_32">
     <g id="line2d_33">
      <g>
       <use xlink:href="#m290dc362cc" x="47.41375" y="166.020911" style="stroke: #000000; stroke-width: 0.6"/>
      </g>
     </g>
    </g>
    <g id="ytick_33">
     <g id="line2d_34">
      <g>
       <use xlink:href="#m290dc362cc" x="47.41375" y="159.41514" style="stroke: #000000; stroke-width: 0.6"/>
      </g>
     </g>
    </g>
    <g id="ytick_34">
     <g id="line2d_35">
      <g>
       <use xlink:href="#m290dc362cc" x="47.41375" y="154.291306" style="stroke: #000000; stroke-width: 0.6"/>
      </g>
     </g>
    </g>
    <g id="ytick_35">
     <g id="line2d_36">
      <g>
       <use xlink:href="#m290dc362cc" x="47.41375" y="150.104829" style="stroke: #000000; stroke-width: 0.6"/>
      </g>
     </g>
    </g>
    <g id="ytick_36">
     <g id="line2d_37">
      <g>
       <use xlink:href="#m290dc362cc" x="47.41375" y="146.565213" style="stroke: #000000; stroke-width: 0.6"/>
      </g>
     </g>
    </g>
    <g id="ytick_37">
     <g id="line2d_38">
      <g>
       <use xlink:href="#m290dc362cc" x="47.41375" y="143.499058" style="stroke: #000000; stroke-width: 0.6"/>
      </g>
     </g>
    </g>
    <g id="ytick_38">
     <g id="line2d_39">
      <g>
       <use xlink:href="#m290dc362cc" x="47.41375" y="140.794518" style="stroke: #000000; stroke-width: 0.6"/>
      </g>
     </g>
    </g>
    <g id="ytick_39">
     <g id="line2d_40">
      <g>
       <use xlink:href="#m290dc362cc" x="47.41375" y="122.459142" style="stroke: #000000; stroke-width: 0.6"/>
      </g>
     </g>
    </g>
    <g id="ytick_40">
     <g id="line2d_41">
      <g>
       <use xlink:href="#m290dc362cc" x="47.41375" y="113.14883" style="stroke: #000000; stroke-width: 0.6"/>
      </g>
     </g>
    </g>
    <g id="ytick_41">
     <g id="line2d_42">
      <g>
       <use xlink:href="#m290dc362cc" x="47.41375" y="106.543059" style="stroke: #000000; stroke-width: 0.6"/>
      </g>
     </g>
    </g>
    <g id="ytick_42">
     <g id="line2d_43">
      <g>
       <use xlink:href="#m290dc362cc" x="47.41375" y="101.419225" style="stroke: #000000; stroke-width: 0.6"/>
      </g>
     </g>
    </g>
    <g id="ytick_43">
     <g id="line2d_44">
      <g>
       <use xlink:href="#m290dc362cc" x="47.41375" y="97.232748" style="stroke: #000000; stroke-width: 0.6"/>
      </g>
     </g>
    </g>
    <g id="ytick_44">
     <g id="line2d_45">
      <g>
       <use xlink:href="#m290dc362cc" x="47.41375" y="93.693132" style="stroke: #000000; stroke-width: 0.6"/>
      </g>
     </g>
    </g>
    <g id="ytick_45">
     <g id="line2d_46">
      <g>
       <use xlink:href="#m290dc362cc" x="47.41375" y="90.626977" style="stroke: #000000; stroke-width: 0.6"/>
      </g>
     </g>
    </g>
    <g id="ytick_46">
     <g id="line2d_47">
      <g>
       <use xlink:href="#m290dc362cc" x="47.41375" y="87.922437" style="stroke: #000000; stroke-width: 0.6"/>
      </g>
     </g>
    </g>
    <g id="ytick_47">
     <g id="line2d_48">
      <g>
       <use xlink:href="#m290dc362cc" x="47.41375" y="69.587061" style="stroke: #000000; stroke-width: 0.6"/>
      </g>
     </g>
    </g>
    <g id="ytick_48">
     <g id="line2d_49">
      <g>
       <use xlink:href="#m290dc362cc" x="47.41375" y="60.276749" style="stroke: #000000; stroke-width: 0.6"/>
      </g>
     </g>
    </g>
    <g id="ytick_49">
     <g id="line2d_50">
      <g>
       <use xlink:href="#m290dc362cc" x="47.41375" y="53.670978" style="stroke: #000000; stroke-width: 0.6"/>
      </g>
     </g>
    </g>
    <g id="ytick_50">
     <g id="line2d_51">
      <g>
       <use xlink:href="#m290dc362cc" x="47.41375" y="48.547144" style="stroke: #000000; stroke-width: 0.6"/>
      </g>
     </g>
    </g>
    <g id="ytick_51">
     <g id="line2d_52">
      <g>
       <use xlink:href="#m290dc362cc" x="47.41375" y="44.360667" style="stroke: #000000; stroke-width: 0.6"/>
      </g>
     </g>
    </g>
    <g id="ytick_52">
     <g id="line2d_53">
      <g>
       <use xlink:href="#m290dc362cc" x="47.41375" y="40.821051" style="stroke: #000000; stroke-width: 0.6"/>
      </g>
     </g>
    </g>
    <g id="ytick_53">
     <g id="line2d_54">
      <g>
       <use xlink:href="#m290dc362cc" x="47.41375" y="37.754896" style="stroke: #000000; stroke-width: 0.6"/>
      </g>
     </g>
    </g>
    <g id="ytick_54">
     <g id="line2d_55">
      <g>
       <use xlink:href="#m290dc362cc" x="47.41375" y="35.050356" style="stroke: #000000; stroke-width: 0.6"/>
      </g>
     </g>
    </g>
    <g id="text_7">
     <!-- Dataset Sample Size -->
     <g transform="translate(16.318125 245.012187) rotate(-90) scale(0.12 -0.12)">
      <defs>
       <path id="DejaVuSans-44" d="M 1259 4147 
L 1259 519 
L 2022 519 
Q 2988 519 3436 956 
Q 3884 1394 3884 2338 
Q 3884 3275 3436 3711 
Q 2988 4147 2022 4147 
L 1259 4147 
z
M 628 4666 
L 1925 4666 
Q 3281 4666 3915 4102 
Q 4550 3538 4550 2338 
Q 4550 1131 3912 565 
Q 3275 0 1925 0 
L 628 0 
L 628 4666 
z
" transform="scale(0.015625)"/>
       <path id="DejaVuSans-61" d="M 2194 1759 
Q 1497 1759 1228 1600 
Q 959 1441 959 1056 
Q 959 750 1161 570 
Q 1363 391 1709 391 
Q 2188 391 2477 730 
Q 2766 1069 2766 1631 
L 2766 1759 
L 2194 1759 
z
M 3341 1997 
L 3341 0 
L 2766 0 
L 2766 531 
Q 2569 213 2275 61 
Q 1981 -91 1556 -91 
Q 1019 -91 701 211 
Q 384 513 384 1019 
Q 384 1609 779 1909 
Q 1175 2209 1959 2209 
L 2766 2209 
L 2766 2266 
Q 2766 2663 2505 2880 
Q 2244 3097 1772 3097 
Q 1472 3097 1187 3025 
Q 903 2953 641 2809 
L 641 3341 
Q 956 3463 1253 3523 
Q 1550 3584 1831 3584 
Q 2591 3584 2966 3190 
Q 3341 2797 3341 1997 
z
" transform="scale(0.015625)"/>
       <path id="DejaVuSans-74" d="M 1172 4494 
L 1172 3500 
L 2356 3500 
L 2356 3053 
L 1172 3053 
L 1172 1153 
Q 1172 725 1289 603 
Q 1406 481 1766 481 
L 2356 481 
L 2356 0 
L 1766 0 
Q 1100 0 847 248 
Q 594 497 594 1153 
L 594 3053 
L 172 3053 
L 172 3500 
L 594 3500 
L 594 4494 
L 1172 4494 
z
" transform="scale(0.015625)"/>
       <path id="DejaVuSans-73" d="M 2834 3397 
L 2834 2853 
Q 2591 2978 2328 3040 
Q 2066 3103 1784 3103 
Q 1356 3103 1142 2972 
Q 928 2841 928 2578 
Q 928 2378 1081 2264 
Q 1234 2150 1697 2047 
L 1894 2003 
Q 2506 1872 2764 1633 
Q 3022 1394 3022 966 
Q 3022 478 2636 193 
Q 2250 -91 1575 -91 
Q 1294 -91 989 -36 
Q 684 19 347 128 
L 347 722 
Q 666 556 975 473 
Q 1284 391 1588 391 
Q 1994 391 2212 530 
Q 2431 669 2431 922 
Q 2431 1156 2273 1281 
Q 2116 1406 1581 1522 
L 1381 1569 
Q 847 1681 609 1914 
Q 372 2147 372 2553 
Q 372 3047 722 3315 
Q 1072 3584 1716 3584 
Q 2034 3584 2315 3537 
Q 2597 3491 2834 3397 
z
" transform="scale(0.015625)"/>
       <path id="DejaVuSans-65" d="M 3597 1894 
L 3597 1613 
L 953 1613 
Q 991 1019 1311 708 
Q 1631 397 2203 397 
Q 2534 397 2845 478 
Q 3156 559 3463 722 
L 3463 178 
Q 3153 47 2828 -22 
Q 2503 -91 2169 -91 
Q 1331 -91 842 396 
Q 353 884 353 1716 
Q 353 2575 817 3079 
Q 1281 3584 2069 3584 
Q 2775 3584 3186 3129 
Q 3597 2675 3597 1894 
z
M 3022 2063 
Q 3016 2534 2758 2815 
Q 2500 3097 2075 3097 
Q 1594 3097 1305 2825 
Q 1016 2553 972 2059 
L 3022 2063 
z
" transform="scale(0.015625)"/>
       <path id="DejaVuSans-20" transform="scale(0.015625)"/>
       <path id="DejaVuSans-53" d="M 3425 4513 
L 3425 3897 
Q 3066 4069 2747 4153 
Q 2428 4238 2131 4238 
Q 1616 4238 1336 4038 
Q 1056 3838 1056 3469 
Q 1056 3159 1242 3001 
Q 1428 2844 1947 2747 
L 2328 2669 
Q 3034 2534 3370 2195 
Q 3706 1856 3706 1288 
Q 3706 609 3251 259 
Q 2797 -91 1919 -91 
Q 1588 -91 1214 -16 
Q 841 59 441 206 
L 441 856 
Q 825 641 1194 531 
Q 1563 422 1919 422 
Q 2459 422 2753 634 
Q 3047 847 3047 1241 
Q 3047 1584 2836 1778 
Q 2625 1972 2144 2069 
L 1759 2144 
Q 1053 2284 737 2584 
Q 422 2884 422 3419 
Q 422 4038 858 4394 
Q 1294 4750 2059 4750 
Q 2388 4750 2728 4690 
Q 3069 4631 3425 4513 
z
" transform="scale(0.015625)"/>
       <path id="DejaVuSans-6d" d="M 3328 2828 
Q 3544 3216 3844 3400 
Q 4144 3584 4550 3584 
Q 5097 3584 5394 3201 
Q 5691 2819 5691 2113 
L 5691 0 
L 5113 0 
L 5113 2094 
Q 5113 2597 4934 2840 
Q 4756 3084 4391 3084 
Q 3944 3084 3684 2787 
Q 3425 2491 3425 1978 
L 3425 0 
L 2847 0 
L 2847 2094 
Q 2847 2600 2669 2842 
Q 2491 3084 2119 3084 
Q 1678 3084 1418 2786 
Q 1159 2488 1159 1978 
L 1159 0 
L 581 0 
L 581 3500 
L 1159 3500 
L 1159 2956 
Q 1356 3278 1631 3431 
Q 1906 3584 2284 3584 
Q 2666 3584 2933 3390 
Q 3200 3197 3328 2828 
z
" transform="scale(0.015625)"/>
       <path id="DejaVuSans-70" d="M 1159 525 
L 1159 -1331 
L 581 -1331 
L 581 3500 
L 1159 3500 
L 1159 2969 
Q 1341 3281 1617 3432 
Q 1894 3584 2278 3584 
Q 2916 3584 3314 3078 
Q 3713 2572 3713 1747 
Q 3713 922 3314 415 
Q 2916 -91 2278 -91 
Q 1894 -91 1617 61 
Q 1341 213 1159 525 
z
M 3116 1747 
Q 3116 2381 2855 2742 
Q 2594 3103 2138 3103 
Q 1681 3103 1420 2742 
Q 1159 2381 1159 1747 
Q 1159 1113 1420 752 
Q 1681 391 2138 391 
Q 2594 391 2855 752 
Q 3116 1113 3116 1747 
z
" transform="scale(0.015625)"/>
       <path id="DejaVuSans-6c" d="M 603 4863 
L 1178 4863 
L 1178 0 
L 603 0 
L 603 4863 
z
" transform="scale(0.015625)"/>
       <path id="DejaVuSans-69" d="M 603 3500 
L 1178 3500 
L 1178 0 
L 603 0 
L 603 3500 
z
M 603 4863 
L 1178 4863 
L 1178 4134 
L 603 4134 
L 603 4863 
z
" transform="scale(0.015625)"/>
       <path id="DejaVuSans-7a" d="M 353 3500 
L 3084 3500 
L 3084 2975 
L 922 459 
L 3084 459 
L 3084 0 
L 275 0 
L 275 525 
L 2438 3041 
L 353 3041 
L 353 3500 
z
" transform="scale(0.015625)"/>
      </defs>
      <use xlink:href="#DejaVuSans-44"/>
      <use xlink:href="#DejaVuSans-61" transform="translate(77.001953 0)"/>
      <use xlink:href="#DejaVuSans-74" transform="translate(138.28125 0)"/>
      <use xlink:href="#DejaVuSans-61" transform="translate(177.490234 0)"/>
      <use xlink:href="#DejaVuSans-73" transform="translate(238.769531 0)"/>
      <use xlink:href="#DejaVuSans-65" transform="translate(290.869141 0)"/>
      <use xlink:href="#DejaVuSans-74" transform="translate(352.392578 0)"/>
      <use xlink:href="#DejaVuSans-20" transform="translate(391.601562 0)"/>
      <use xlink:href="#DejaVuSans-53" transform="translate(423.388672 0)"/>
      <use xlink:href="#DejaVuSans-61" transform="translate(486.865234 0)"/>
      <use xlink:href="#DejaVuSans-6d" transform="translate(548.144531 0)"/>
      <use xlink:href="#DejaVuSans-70" transform="translate(645.556641 0)"/>
      <use xlink:href="#DejaVuSans-6c" transform="translate(709.033203 0)"/>
      <use xlink:href="#DejaVuSans-65" transform="translate(736.816406 0)"/>
      <use xlink:href="#DejaVuSans-20" transform="translate(798.339844 0)"/>
      <use xlink:href="#DejaVuSans-53" transform="translate(830.126953 0)"/>
      <use xlink:href="#DejaVuSans-69" transform="translate(893.603516 0)"/>
      <use xlink:href="#DejaVuSans-7a" transform="translate(921.386719 0)"/>
      <use xlink:href="#DejaVuSans-65" transform="translate(973.876953 0)"/>
     </g>
    </g>
   </g>
   <g id="line2d_56">
    <path d="M 376.371158 268.89107 
L 376.371158 132.238035 
" clip-path="url(#pb8eab2a15a)" style="fill: none; stroke: #797979; stroke-width: 1.875; stroke-linecap: square"/>
   </g>
   <g id="line2d_57">
    <path d="M 376.371158 223.263905 
L 376.371158 184.768174 
" clip-path="url(#pb8eab2a15a)" style="fill: none; stroke: #797979; stroke-width: 5.625; stroke-linecap: square"/>
   </g>
   <g id="line2d_58">
    <path d="M 376.371158 207.580469 
" clip-path="url(#pb8eab2a15a)" style="fill: none; stroke: #797979; stroke-width: 1.5; stroke-linecap: square"/>
    <defs>
     <path id="m9bf7c2315b" d="M 2.34375 0 
L -2.34375 -0 
" style="stroke: #ffffff; stroke-width: 1.125"/>
    </defs>
    <g clip-path="url(#pb8eab2a15a)">
     <use xlink:href="#m9bf7c2315b" x="376.371158" y="207.580469" style="fill: #ffffff; stroke: #ffffff; stroke-width: 1.125"/>
    </g>
   </g>
   <g id="patch_3">
    <path d="M 47.41375 341.937812 
L 47.41375 23.837812 
" style="fill: none; stroke: #000000; stroke-width: 0.8; stroke-linejoin: miter; stroke-linecap: square"/>
   </g>
   <g id="patch_4">
    <path d="M 705.328565 341.937812 
L 705.328565 23.837812 
" style="fill: none; stroke: #000000; stroke-width: 0.8; stroke-linejoin: miter; stroke-linecap: square"/>
   </g>
   <g id="patch_5">
    <path d="M 47.41375 341.937812 
L 705.328565 341.937812 
" style="fill: none; stroke: #000000; stroke-width: 0.8; stroke-linejoin: miter; stroke-linecap: square"/>
   </g>
   <g id="patch_6">
    <path d="M 47.41375 23.837812 
L 705.328565 23.837812 
" style="fill: none; stroke: #000000; stroke-width: 0.8; stroke-linejoin: miter; stroke-linecap: square"/>
   </g>
   <g id="PathCollection_1">
    <defs>
     <path id="m59f6ec1405" d="M 0 2 
C 0.530406 2 1.03916 1.789267 1.414214 1.414214 
C 1.789267 1.03916 2 0.530406 2 0 
C 2 -0.530406 1.789267 -1.03916 1.414214 -1.414214 
C 1.03916 -1.789267 0.530406 -2 0 -2 
C -0.530406 -2 -1.03916 -1.789267 -1.414214 -1.414214 
C -1.789267 -1.03916 -2 -0.530406 -2 0 
C -2 0.530406 -1.789267 1.03916 -1.414214 1.414214 
C -1.03916 1.789267 -0.530406 2 0 2 
z
"/>
    </defs>
    <g clip-path="url(#pb8eab2a15a)">
     <use xlink:href="#m59f6ec1405" x="373.081778" y="148.536945" style="fill-opacity: 0.5"/>
     <use xlink:href="#m59f6ec1405" x="322.277935" y="212.809768" style="fill-opacity: 0.5"/>
     <use xlink:href="#m59f6ec1405" x="386.526051" y="183.002273" style="fill-opacity: 0.5"/>
     <use xlink:href="#m59f6ec1405" x="428.902441" y="231.935072" style="fill-opacity: 0.5"/>
     <use xlink:href="#m59f6ec1405" x="411.602515" y="158.338597" style="fill-opacity: 0.5"/>
     <use xlink:href="#m59f6ec1405" x="431.001866" y="201.820169" style="fill-opacity: 0.5"/>
     <use xlink:href="#m59f6ec1405" x="332.202594" y="180.656859" style="fill-opacity: 0.5"/>
     <use xlink:href="#m59f6ec1405" x="315.812295" y="168.55103" style="fill-opacity: 0.5"/>
     <use xlink:href="#m59f6ec1405" x="415.600093" y="142.4143" style="fill-opacity: 0.5"/>
     <use xlink:href="#m59f6ec1405" x="406.460708" y="218.892992" style="fill-opacity: 0.5"/>
     <use xlink:href="#m59f6ec1405" x="334.528441" y="257.02679" style="fill-opacity: 0.5"/>
     <use xlink:href="#m59f6ec1405" x="357.792377" y="228.667199" style="fill-opacity: 0.5"/>
     <use xlink:href="#m59f6ec1405" x="359.312459" y="206.753746" style="fill-opacity: 0.5"/>
     <use xlink:href="#m59f6ec1405" x="348.688657" y="205.396204" style="fill-opacity: 0.5"/>
     <use xlink:href="#m59f6ec1405" x="412.716077" y="223.637279" style="fill-opacity: 0.5"/>
     <use xlink:href="#m59f6ec1405" x="413.268813" y="122.459142" style="fill-opacity: 0.5"/>
     <use xlink:href="#m59f6ec1405" x="392.047017" y="227.974823" style="fill-opacity: 0.5"/>
     <use xlink:href="#m59f6ec1405" x="438.194518" y="189.629434" style="fill-opacity: 0.5"/>
     <use xlink:href="#m59f6ec1405" x="334.942124" y="218.363366" style="fill-opacity: 0.5"/>
     <use xlink:href="#m59f6ec1405" x="439.829874" y="212.460086" style="fill-opacity: 0.5"/>
     <use xlink:href="#m59f6ec1405" x="355.804424" y="185.435824" style="fill-opacity: 0.5"/>
     <use xlink:href="#m59f6ec1405" x="419.189755" y="215.157397" style="fill-opacity: 0.5"/>
     <use xlink:href="#m59f6ec1405" x="376.335625" y="223.263905" style="fill-opacity: 0.5"/>
     <use xlink:href="#m59f6ec1405" x="432.929126" y="210.098704" style="fill-opacity: 0.5"/>
     <use xlink:href="#m59f6ec1405" x="401.194251" y="134.896045" style="fill-opacity: 0.5"/>
     <use xlink:href="#m59f6ec1405" x="340.504766" y="210.255799" style="fill-opacity: 0.5"/>
     <use xlink:href="#m59f6ec1405" x="336.828284" y="190.039674" style="fill-opacity: 0.5"/>
     <use xlink:href="#m59f6ec1405" x="379.348565" y="200.511738" style="fill-opacity: 0.5"/>
     <use xlink:href="#m59f6ec1405" x="315.008867" y="207.071722" style="fill-opacity: 0.5"/>
     <use xlink:href="#m59f6ec1405" x="334.76728" y="229.260567" style="fill-opacity: 0.5"/>
     <use xlink:href="#m59f6ec1405" x="321.691887" y="209.582681" style="fill-opacity: 0.5"/>
     <use xlink:href="#m59f6ec1405" x="318.846934" y="184.119388" style="fill-opacity: 0.5"/>
     <use xlink:href="#m59f6ec1405" x="323.101798" y="221.828309" style="fill-opacity: 0.5"/>
     <use xlink:href="#m59f6ec1405" x="313.609993" y="224.112701" style="fill-opacity: 0.5"/>
     <use xlink:href="#m59f6ec1405" x="315.927741" y="184.768174" style="fill-opacity: 0.5"/>
     <use xlink:href="#m59f6ec1405" x="385.111014" y="225.91065" style="fill-opacity: 0.5"/>
     <use xlink:href="#m59f6ec1405" x="432.708753" y="199.800991" style="fill-opacity: 0.5"/>
     <use xlink:href="#m59f6ec1405" x="353.261082" y="209.839243" style="fill-opacity: 0.5"/>
     <use xlink:href="#m59f6ec1405" x="398.021761" y="176.364454" style="fill-opacity: 0.5"/>
     <use xlink:href="#m59f6ec1405" x="405.618882" y="135.84072" style="fill-opacity: 0.5"/>
     <use xlink:href="#m59f6ec1405" x="384.028858" y="143.103519" style="fill-opacity: 0.5"/>
     <use xlink:href="#m59f6ec1405" x="382.712499" y="191.316294" style="fill-opacity: 0.5"/>
     <use xlink:href="#m59f6ec1405" x="438.298441" y="192.889" style="fill-opacity: 0.5"/>
     <use xlink:href="#m59f6ec1405" x="426.825086" y="203.015212" style="fill-opacity: 0.5"/>
     <use xlink:href="#m59f6ec1405" x="373.462998" y="170.549767" style="fill-opacity: 0.5"/>
     <use xlink:href="#m59f6ec1405" x="395.969774" y="120.441385" style="fill-opacity: 0.5"/>
     <use xlink:href="#m59f6ec1405" x="373.087439" y="132.238035" style="fill-opacity: 0.5"/>
     <use xlink:href="#m59f6ec1405" x="341.232742" y="204.438445" style="fill-opacity: 0.5"/>
     <use xlink:href="#m59f6ec1405" x="393.453188" y="68.784158" style="fill-opacity: 0.5"/>
     <use xlink:href="#m59f6ec1405" x="376.335723" y="126.092519" style="fill-opacity: 0.5"/>
     <use xlink:href="#m59f6ec1405" x="389.727753" y="173.174038" style="fill-opacity: 0.5"/>
     <use xlink:href="#m59f6ec1405" x="422.414505" y="203.28513" style="fill-opacity: 0.5"/>
     <use xlink:href="#m59f6ec1405" x="421.524917" y="260.972825" style="fill-opacity: 0.5"/>
     <use xlink:href="#m59f6ec1405" x="345.823182" y="219.356888" style="fill-opacity: 0.5"/>
     <use xlink:href="#m59f6ec1405" x="400.327679" y="141.897242" style="fill-opacity: 0.5"/>
     <use xlink:href="#m59f6ec1405" x="378.763" y="211.945348" style="fill-opacity: 0.5"/>
     <use xlink:href="#m59f6ec1405" x="351.192889" y="226.014786" style="fill-opacity: 0.5"/>
     <use xlink:href="#m59f6ec1405" x="356.073768" y="205.566926" style="fill-opacity: 0.5"/>
     <use xlink:href="#m59f6ec1405" x="383.066961" y="155.038105" style="fill-opacity: 0.5"/>
     <use xlink:href="#m59f6ec1405" x="339.133503" y="180.198176" style="fill-opacity: 0.5"/>
     <use xlink:href="#m59f6ec1405" x="426.098133" y="247.582589" style="fill-opacity: 0.5"/>
     <use xlink:href="#m59f6ec1405" x="342.270995" y="172.302411" style="fill-opacity: 0.5"/>
     <use xlink:href="#m59f6ec1405" x="350.54929" y="187.938465" style="fill-opacity: 0.5"/>
     <use xlink:href="#m59f6ec1405" x="433.786327" y="296.991467" style="fill-opacity: 0.5"/>
     <use xlink:href="#m59f6ec1405" x="384.271574" y="283.494678" style="fill-opacity: 0.5"/>
     <use xlink:href="#m59f6ec1405" x="403.259172" y="213.46502" style="fill-opacity: 0.5"/>
     <use xlink:href="#m59f6ec1405" x="323.430804" y="115.825546" style="fill-opacity: 0.5"/>
     <use xlink:href="#m59f6ec1405" x="367.381679" y="207.580469" style="fill-opacity: 0.5"/>
     <use xlink:href="#m59f6ec1405" x="399.134618" y="252.309375" style="fill-opacity: 0.5"/>
     <use xlink:href="#m59f6ec1405" x="401.176826" y="218.664512" style="fill-opacity: 0.5"/>
     <use xlink:href="#m59f6ec1405" x="438.306323" y="238.631067" style="fill-opacity: 0.5"/>
     <use xlink:href="#m59f6ec1405" x="417.467766" y="235.906446" style="fill-opacity: 0.5"/>
     <use xlink:href="#m59f6ec1405" x="403.282689" y="196.952488" style="fill-opacity: 0.5"/>
     <use xlink:href="#m59f6ec1405" x="325.566349" y="227.413376" style="fill-opacity: 0.5"/>
     <use xlink:href="#m59f6ec1405" x="387.127859" y="235.906446" style="fill-opacity: 0.5"/>
     <use xlink:href="#m59f6ec1405" x="420.791945" y="222.805565" style="fill-opacity: 0.5"/>
     <use xlink:href="#m59f6ec1405" x="358.623003" y="214.515957" style="fill-opacity: 0.5"/>
     <use xlink:href="#m59f6ec1405" x="438.398397" y="223.637279" style="fill-opacity: 0.5"/>
     <use xlink:href="#m59f6ec1405" x="435.053692" y="245.785758" style="fill-opacity: 0.5"/>
     <use xlink:href="#m59f6ec1405" x="386.843787" y="209.787701" style="fill-opacity: 0.5"/>
     <use xlink:href="#m59f6ec1405" x="411.1445" y="186.25242" style="fill-opacity: 0.5"/>
     <use xlink:href="#m59f6ec1405" x="378.706165" y="210.255799" style="fill-opacity: 0.5"/>
     <use xlink:href="#m59f6ec1405" x="343.31938" y="196.256615" style="fill-opacity: 0.5"/>
     <use xlink:href="#m59f6ec1405" x="414.606951" y="191.687782" style="fill-opacity: 0.5"/>
     <use xlink:href="#m59f6ec1405" x="355.301428" y="210.680053" style="fill-opacity: 0.5"/>
     <use xlink:href="#m59f6ec1405" x="374.196448" y="223.079469" style="fill-opacity: 0.5"/>
     <use xlink:href="#m59f6ec1405" x="367.724425" y="196.029266" style="fill-opacity: 0.5"/>
     <use xlink:href="#m59f6ec1405" x="398.777386" y="159.180977" style="fill-opacity: 0.5"/>
     <use xlink:href="#m59f6ec1405" x="407.30388" y="198.663219" style="fill-opacity: 0.5"/>
     <use xlink:href="#m59f6ec1405" x="385.788404" y="219.750758" style="fill-opacity: 0.5"/>
     <use xlink:href="#m59f6ec1405" x="368.65591" y="229.502275" style="fill-opacity: 0.5"/>
     <use xlink:href="#m59f6ec1405" x="379.847665" y="244.119386" style="fill-opacity: 0.5"/>
     <use xlink:href="#m59f6ec1405" x="409.9251" y="260.499364" style="fill-opacity: 0.5"/>
     <use xlink:href="#m59f6ec1405" x="420.27519" y="219.513626" style="fill-opacity: 0.5"/>
     <use xlink:href="#m59f6ec1405" x="313.45513" y="215.027668" style="fill-opacity: 0.5"/>
     <use xlink:href="#m59f6ec1405" x="360.147701" y="188.258778" style="fill-opacity: 0.5"/>
     <use xlink:href="#m59f6ec1405" x="362.842665" y="268.89107" style="fill-opacity: 0.5"/>
    </g>
   </g>
   <g id="text_8">
    <!-- Minimum -->
    <g transform="translate(550.57529 294.151935) scale(0.1 -0.1)">
     <defs>
      <path id="DejaVuSans-4d" d="M 628 4666 
L 1569 4666 
L 2759 1491 
L 3956 4666 
L 4897 4666 
L 4897 0 
L 4281 0 
L 4281 4097 
L 3078 897 
L 2444 897 
L 1241 4097 
L 1241 0 
L 628 0 
L 628 4666 
z
" transform="scale(0.015625)"/>
      <path id="DejaVuSans-6e" d="M 3513 2113 
L 3513 0 
L 2938 0 
L 2938 2094 
Q 2938 2591 2744 2837 
Q 2550 3084 2163 3084 
Q 1697 3084 1428 2787 
Q 1159 2491 1159 1978 
L 1159 0 
L 581 0 
L 581 3500 
L 1159 3500 
L 1159 2956 
Q 1366 3272 1645 3428 
Q 1925 3584 2291 3584 
Q 2894 3584 3203 3211 
Q 3513 2838 3513 2113 
z
" transform="scale(0.015625)"/>
      <path id="DejaVuSans-75" d="M 544 1381 
L 544 3500 
L 1119 3500 
L 1119 1403 
Q 1119 906 1312 657 
Q 1506 409 1894 409 
Q 2359 409 2629 706 
Q 2900 1003 2900 1516 
L 2900 3500 
L 3475 3500 
L 3475 0 
L 2900 0 
L 2900 538 
Q 2691 219 2414 64 
Q 2138 -91 1772 -91 
Q 1169 -91 856 284 
Q 544 659 544 1381 
z
M 1991 3584 
L 1991 3584 
z
" transform="scale(0.015625)"/>
     </defs>
     <use xlink:href="#DejaVuSans-4d"/>
     <use xlink:href="#DejaVuSans-69" transform="translate(86.279297 0)"/>
     <use xlink:href="#DejaVuSans-6e" transform="translate(114.0625 0)"/>
     <use xlink:href="#DejaVuSans-69" transform="translate(177.441406 0)"/>
     <use xlink:href="#DejaVuSans-6d" transform="translate(205.224609 0)"/>
     <use xlink:href="#DejaVuSans-75" transform="translate(302.636719 0)"/>
     <use xlink:href="#DejaVuSans-6d" transform="translate(366.015625 0)"/>
    </g>
    <!-- 10 -->
    <g transform="translate(567.383102 305.349748) scale(0.1 -0.1)">
     <use xlink:href="#DejaVuSans-31"/>
     <use xlink:href="#DejaVuSans-30" transform="translate(63.623047 0)"/>
    </g>
   </g>
   <g id="text_9">
    <!-- First Quartile -->
    <g transform="translate(541.594821 220.424373) scale(0.1 -0.1)">
     <defs>
      <path id="DejaVuSans-46" d="M 628 4666 
L 3309 4666 
L 3309 4134 
L 1259 4134 
L 1259 2759 
L 3109 2759 
L 3109 2228 
L 1259 2228 
L 1259 0 
L 628 0 
L 628 4666 
z
" transform="scale(0.015625)"/>
      <path id="DejaVuSans-72" d="M 2631 2963 
Q 2534 3019 2420 3045 
Q 2306 3072 2169 3072 
Q 1681 3072 1420 2755 
Q 1159 2438 1159 1844 
L 1159 0 
L 581 0 
L 581 3500 
L 1159 3500 
L 1159 2956 
Q 1341 3275 1631 3429 
Q 1922 3584 2338 3584 
Q 2397 3584 2469 3576 
Q 2541 3569 2628 3553 
L 2631 2963 
z
" transform="scale(0.015625)"/>
      <path id="DejaVuSans-51" d="M 2522 4238 
Q 1834 4238 1429 3725 
Q 1025 3213 1025 2328 
Q 1025 1447 1429 934 
Q 1834 422 2522 422 
Q 3209 422 3611 934 
Q 4013 1447 4013 2328 
Q 4013 3213 3611 3725 
Q 3209 4238 2522 4238 
z
M 3406 84 
L 4238 -825 
L 3475 -825 
L 2784 -78 
Q 2681 -84 2626 -87 
Q 2572 -91 2522 -91 
Q 1538 -91 948 567 
Q 359 1225 359 2328 
Q 359 3434 948 4092 
Q 1538 4750 2522 4750 
Q 3503 4750 4090 4092 
Q 4678 3434 4678 2328 
Q 4678 1516 4351 937 
Q 4025 359 3406 84 
z
" transform="scale(0.015625)"/>
     </defs>
     <use xlink:href="#DejaVuSans-46"/>
     <use xlink:href="#DejaVuSans-69" transform="translate(50.269531 0)"/>
     <use xlink:href="#DejaVuSans-72" transform="translate(78.052734 0)"/>
     <use xlink:href="#DejaVuSans-73" transform="translate(119.166016 0)"/>
     <use xlink:href="#DejaVuSans-74" transform="translate(171.265625 0)"/>
     <use xlink:href="#DejaVuSans-20" transform="translate(210.474609 0)"/>
     <use xlink:href="#DejaVuSans-51" transform="translate(242.261719 0)"/>
     <use xlink:href="#DejaVuSans-75" transform="translate(320.972656 0)"/>
     <use xlink:href="#DejaVuSans-61" transform="translate(384.351562 0)"/>
     <use xlink:href="#DejaVuSans-72" transform="translate(445.630859 0)"/>
     <use xlink:href="#DejaVuSans-74" transform="translate(486.744141 0)"/>
     <use xlink:href="#DejaVuSans-69" transform="translate(525.953125 0)"/>
     <use xlink:href="#DejaVuSans-6c" transform="translate(553.736328 0)"/>
     <use xlink:href="#DejaVuSans-65" transform="translate(581.519531 0)"/>
    </g>
    <!-- 248 -->
    <g transform="translate(564.201852 231.622186) scale(0.1 -0.1)">
     <defs>
      <path id="DejaVuSans-38" d="M 2034 2216 
Q 1584 2216 1326 1975 
Q 1069 1734 1069 1313 
Q 1069 891 1326 650 
Q 1584 409 2034 409 
Q 2484 409 2743 651 
Q 3003 894 3003 1313 
Q 3003 1734 2745 1975 
Q 2488 2216 2034 2216 
z
M 1403 2484 
Q 997 2584 770 2862 
Q 544 3141 544 3541 
Q 544 4100 942 4425 
Q 1341 4750 2034 4750 
Q 2731 4750 3128 4425 
Q 3525 4100 3525 3541 
Q 3525 3141 3298 2862 
Q 3072 2584 2669 2484 
Q 3125 2378 3379 2068 
Q 3634 1759 3634 1313 
Q 3634 634 3220 271 
Q 2806 -91 2034 -91 
Q 1263 -91 848 271 
Q 434 634 434 1313 
Q 434 1759 690 2068 
Q 947 2378 1403 2484 
z
M 1172 3481 
Q 1172 3119 1398 2916 
Q 1625 2713 2034 2713 
Q 2441 2713 2670 2916 
Q 2900 3119 2900 3481 
Q 2900 3844 2670 4047 
Q 2441 4250 2034 4250 
Q 1625 4250 1398 4047 
Q 1172 3844 1172 3481 
z
" transform="scale(0.015625)"/>
     </defs>
     <use xlink:href="#DejaVuSans-32"/>
     <use xlink:href="#DejaVuSans-34" transform="translate(63.623047 0)"/>
     <use xlink:href="#DejaVuSans-38" transform="translate(127.246094 0)"/>
    </g>
   </g>
   <g id="text_10">
    <!-- Median -->
    <g transform="translate(555.558883 204.740938) scale(0.1 -0.1)">
     <defs>
      <path id="DejaVuSans-64" d="M 2906 2969 
L 2906 4863 
L 3481 4863 
L 3481 0 
L 2906 0 
L 2906 525 
Q 2725 213 2448 61 
Q 2172 -91 1784 -91 
Q 1150 -91 751 415 
Q 353 922 353 1747 
Q 353 2572 751 3078 
Q 1150 3584 1784 3584 
Q 2172 3584 2448 3432 
Q 2725 3281 2906 2969 
z
M 947 1747 
Q 947 1113 1208 752 
Q 1469 391 1925 391 
Q 2381 391 2643 752 
Q 2906 1113 2906 1747 
Q 2906 2381 2643 2742 
Q 2381 3103 1925 3103 
Q 1469 3103 1208 2742 
Q 947 2381 947 1747 
z
" transform="scale(0.015625)"/>
     </defs>
     <use xlink:href="#DejaVuSans-4d"/>
     <use xlink:href="#DejaVuSans-65" transform="translate(86.279297 0)"/>
     <use xlink:href="#DejaVuSans-64" transform="translate(147.802734 0)"/>
     <use xlink:href="#DejaVuSans-69" transform="translate(211.279297 0)"/>
     <use xlink:href="#DejaVuSans-61" transform="translate(239.0625 0)"/>
     <use xlink:href="#DejaVuSans-6e" transform="translate(300.341797 0)"/>
    </g>
    <!-- 491 -->
    <g transform="translate(564.201852 215.93875) scale(0.1 -0.1)">
     <defs>
      <path id="DejaVuSans-39" d="M 703 97 
L 703 672 
Q 941 559 1184 500 
Q 1428 441 1663 441 
Q 2288 441 2617 861 
Q 2947 1281 2994 2138 
Q 2813 1869 2534 1725 
Q 2256 1581 1919 1581 
Q 1219 1581 811 2004 
Q 403 2428 403 3163 
Q 403 3881 828 4315 
Q 1253 4750 1959 4750 
Q 2769 4750 3195 4129 
Q 3622 3509 3622 2328 
Q 3622 1225 3098 567 
Q 2575 -91 1691 -91 
Q 1453 -91 1209 -44 
Q 966 3 703 97 
z
M 1959 2075 
Q 2384 2075 2632 2365 
Q 2881 2656 2881 3163 
Q 2881 3666 2632 3958 
Q 2384 4250 1959 4250 
Q 1534 4250 1286 3958 
Q 1038 3666 1038 3163 
Q 1038 2656 1286 2365 
Q 1534 2075 1959 2075 
z
" transform="scale(0.015625)"/>
     </defs>
     <use xlink:href="#DejaVuSans-34"/>
     <use xlink:href="#DejaVuSans-39" transform="translate(63.623047 0)"/>
     <use xlink:href="#DejaVuSans-31" transform="translate(127.246094 0)"/>
    </g>
   </g>
   <g id="text_11">
    <!-- Third Quartile -->
    <g transform="translate(539.363571 181.928642) scale(0.1 -0.1)">
     <defs>
      <path id="DejaVuSans-54" d="M -19 4666 
L 3928 4666 
L 3928 4134 
L 2272 4134 
L 2272 0 
L 1638 0 
L 1638 4134 
L -19 4134 
L -19 4666 
z
" transform="scale(0.015625)"/>
      <path id="DejaVuSans-68" d="M 3513 2113 
L 3513 0 
L 2938 0 
L 2938 2094 
Q 2938 2591 2744 2837 
Q 2550 3084 2163 3084 
Q 1697 3084 1428 2787 
Q 1159 2491 1159 1978 
L 1159 0 
L 581 0 
L 581 4863 
L 1159 4863 
L 1159 2956 
Q 1366 3272 1645 3428 
Q 1925 3584 2291 3584 
Q 2894 3584 3203 3211 
Q 3513 2838 3513 2113 
z
" transform="scale(0.015625)"/>
     </defs>
     <use xlink:href="#DejaVuSans-54"/>
     <use xlink:href="#DejaVuSans-68" transform="translate(61.083984 0)"/>
     <use xlink:href="#DejaVuSans-69" transform="translate(124.462891 0)"/>
     <use xlink:href="#DejaVuSans-72" transform="translate(152.246094 0)"/>
     <use xlink:href="#DejaVuSans-64" transform="translate(191.609375 0)"/>
     <use xlink:href="#DejaVuSans-20" transform="translate(255.085938 0)"/>
     <use xlink:href="#DejaVuSans-51" transform="translate(286.873047 0)"/>
     <use xlink:href="#DejaVuSans-75" transform="translate(365.583984 0)"/>
     <use xlink:href="#DejaVuSans-61" transform="translate(428.962891 0)"/>
     <use xlink:href="#DejaVuSans-72" transform="translate(490.242188 0)"/>
     <use xlink:href="#DejaVuSans-74" transform="translate(531.355469 0)"/>
     <use xlink:href="#DejaVuSans-69" transform="translate(570.564453 0)"/>
     <use xlink:href="#DejaVuSans-6c" transform="translate(598.347656 0)"/>
     <use xlink:href="#DejaVuSans-65" transform="translate(626.130859 0)"/>
    </g>
    <!-- 1326 -->
    <g transform="translate(561.020602 193.126455) scale(0.1 -0.1)">
     <use xlink:href="#DejaVuSans-31"/>
     <use xlink:href="#DejaVuSans-33" transform="translate(63.623047 0)"/>
     <use xlink:href="#DejaVuSans-32" transform="translate(127.246094 0)"/>
     <use xlink:href="#DejaVuSans-36" transform="translate(190.869141 0)"/>
    </g>
   </g>
   <g id="text_12">
    <!-- Maximum -->
    <g transform="translate(549.109665 65.944627) scale(0.1 -0.1)">
     <defs>
      <path id="DejaVuSans-78" d="M 3513 3500 
L 2247 1797 
L 3578 0 
L 2900 0 
L 1881 1375 
L 863 0 
L 184 0 
L 1544 1831 
L 300 3500 
L 978 3500 
L 1906 2253 
L 2834 3500 
L 3513 3500 
z
" transform="scale(0.015625)"/>
     </defs>
     <use xlink:href="#DejaVuSans-4d"/>
     <use xlink:href="#DejaVuSans-61" transform="translate(86.279297 0)"/>
     <use xlink:href="#DejaVuSans-78" transform="translate(147.558594 0)"/>
     <use xlink:href="#DejaVuSans-69" transform="translate(206.738281 0)"/>
     <use xlink:href="#DejaVuSans-6d" transform="translate(234.521484 0)"/>
     <use xlink:href="#DejaVuSans-75" transform="translate(331.933594 0)"/>
     <use xlink:href="#DejaVuSans-6d" transform="translate(395.3125 0)"/>
    </g>
    <!-- 207117 -->
    <g transform="translate(554.658102 77.14244) scale(0.1 -0.1)">
     <defs>
      <path id="DejaVuSans-37" d="M 525 4666 
L 3525 4666 
L 3525 4397 
L 1831 0 
L 1172 0 
L 2766 4134 
L 525 4134 
L 525 4666 
z
" transform="scale(0.015625)"/>
     </defs>
     <use xlink:href="#DejaVuSans-32"/>
     <use xlink:href="#DejaVuSans-30" transform="translate(63.623047 0)"/>
     <use xlink:href="#DejaVuSans-37" transform="translate(127.246094 0)"/>
     <use xlink:href="#DejaVuSans-31" transform="translate(190.869141 0)"/>
     <use xlink:href="#DejaVuSans-31" transform="translate(254.492188 0)"/>
     <use xlink:href="#DejaVuSans-37" transform="translate(318.115234 0)"/>
    </g>
   </g>
   <g id="text_13">
    <!-- Violin Plot of Dataset Sample Sizes -->
    <g transform="translate(254.447564 17.837812) scale(0.14 -0.14)">
     <defs>
      <path id="DejaVuSans-56" d="M 1831 0 
L 50 4666 
L 709 4666 
L 2188 738 
L 3669 4666 
L 4325 4666 
L 2547 0 
L 1831 0 
z
" transform="scale(0.015625)"/>
      <path id="DejaVuSans-6f" d="M 1959 3097 
Q 1497 3097 1228 2736 
Q 959 2375 959 1747 
Q 959 1119 1226 758 
Q 1494 397 1959 397 
Q 2419 397 2687 759 
Q 2956 1122 2956 1747 
Q 2956 2369 2687 2733 
Q 2419 3097 1959 3097 
z
M 1959 3584 
Q 2709 3584 3137 3096 
Q 3566 2609 3566 1747 
Q 3566 888 3137 398 
Q 2709 -91 1959 -91 
Q 1206 -91 779 398 
Q 353 888 353 1747 
Q 353 2609 779 3096 
Q 1206 3584 1959 3584 
z
" transform="scale(0.015625)"/>
      <path id="DejaVuSans-50" d="M 1259 4147 
L 1259 2394 
L 2053 2394 
Q 2494 2394 2734 2622 
Q 2975 2850 2975 3272 
Q 2975 3691 2734 3919 
Q 2494 4147 2053 4147 
L 1259 4147 
z
M 628 4666 
L 2053 4666 
Q 2838 4666 3239 4311 
Q 3641 3956 3641 3272 
Q 3641 2581 3239 2228 
Q 2838 1875 2053 1875 
L 1259 1875 
L 1259 0 
L 628 0 
L 628 4666 
z
" transform="scale(0.015625)"/>
      <path id="DejaVuSans-66" d="M 2375 4863 
L 2375 4384 
L 1825 4384 
Q 1516 4384 1395 4259 
Q 1275 4134 1275 3809 
L 1275 3500 
L 2222 3500 
L 2222 3053 
L 1275 3053 
L 1275 0 
L 697 0 
L 697 3053 
L 147 3053 
L 147 3500 
L 697 3500 
L 697 3744 
Q 697 4328 969 4595 
Q 1241 4863 1831 4863 
L 2375 4863 
z
" transform="scale(0.015625)"/>
     </defs>
     <use xlink:href="#DejaVuSans-56"/>
     <use xlink:href="#DejaVuSans-69" transform="translate(66.158203 0)"/>
     <use xlink:href="#DejaVuSans-6f" transform="translate(93.941406 0)"/>
     <use xlink:href="#DejaVuSans-6c" transform="translate(155.123047 0)"/>
     <use xlink:href="#DejaVuSans-69" transform="translate(182.90625 0)"/>
     <use xlink:href="#DejaVuSans-6e" transform="translate(210.689453 0)"/>
     <use xlink:href="#DejaVuSans-20" transform="translate(274.068359 0)"/>
     <use xlink:href="#DejaVuSans-50" transform="translate(305.855469 0)"/>
     <use xlink:href="#DejaVuSans-6c" transform="translate(366.158203 0)"/>
     <use xlink:href="#DejaVuSans-6f" transform="translate(393.941406 0)"/>
     <use xlink:href="#DejaVuSans-74" transform="translate(455.123047 0)"/>
     <use xlink:href="#DejaVuSans-20" transform="translate(494.332031 0)"/>
     <use xlink:href="#DejaVuSans-6f" transform="translate(526.119141 0)"/>
     <use xlink:href="#DejaVuSans-66" transform="translate(587.300781 0)"/>
     <use xlink:href="#DejaVuSans-20" transform="translate(622.505859 0)"/>
     <use xlink:href="#DejaVuSans-44" transform="translate(654.292969 0)"/>
     <use xlink:href="#DejaVuSans-61" transform="translate(731.294922 0)"/>
     <use xlink:href="#DejaVuSans-74" transform="translate(792.574219 0)"/>
     <use xlink:href="#DejaVuSans-61" transform="translate(831.783203 0)"/>
     <use xlink:href="#DejaVuSans-73" transform="translate(893.0625 0)"/>
     <use xlink:href="#DejaVuSans-65" transform="translate(945.162109 0)"/>
     <use xlink:href="#DejaVuSans-74" transform="translate(1006.685547 0)"/>
     <use xlink:href="#DejaVuSans-20" transform="translate(1045.894531 0)"/>
     <use xlink:href="#DejaVuSans-53" transform="translate(1077.681641 0)"/>
     <use xlink:href="#DejaVuSans-61" transform="translate(1141.158203 0)"/>
     <use xlink:href="#DejaVuSans-6d" transform="translate(1202.4375 0)"/>
     <use xlink:href="#DejaVuSans-70" transform="translate(1299.849609 0)"/>
     <use xlink:href="#DejaVuSans-6c" transform="translate(1363.326172 0)"/>
     <use xlink:href="#DejaVuSans-65" transform="translate(1391.109375 0)"/>
     <use xlink:href="#DejaVuSans-20" transform="translate(1452.632812 0)"/>
     <use xlink:href="#DejaVuSans-53" transform="translate(1484.419922 0)"/>
     <use xlink:href="#DejaVuSans-69" transform="translate(1547.896484 0)"/>
     <use xlink:href="#DejaVuSans-7a" transform="translate(1575.679688 0)"/>
     <use xlink:href="#DejaVuSans-65" transform="translate(1628.169922 0)"/>
     <use xlink:href="#DejaVuSans-73" transform="translate(1689.693359 0)"/>
    </g>
   </g>
  </g>
 </g>
 <defs>
  <clipPath id="pb8eab2a15a">
   <rect x="47.41375" y="23.837812" width="657.914815" height="318.1"/>
  </clipPath>
 </defs>
</svg>
